General

Format                         : MPEG-4
Format profile                 : Base Media
Codec ID                       : isom
File size                      : 81.1 MiB
Duration                       : 4mn 29s
Overall bit rate mode          : Variable
Overall bit rate               : 2 528 Kbps
Encoded date                   : UTC 2012-08-25 06:07:20
Tagged date                    : UTC 2012-08-25 06:07:20

Video
ID                             : 1
Format                         : AVC
Format/Info                    : Advanced Video Codec
Format profile                 : High@L3.0
Format settings, CABAC         : Yes
Format settings, ReFrames      : 2 frames
Codec ID                       : avc1
Codec ID/Info                  : Advanced Video Coding
Duration                       : 4mn 29s
Bit rate                       : 2 343 Kbps
Maximum bit rate               : 13.8 Mbps
Width                          : 720 pixels
Height                         : 480 pixels
Display aspect ratio           : 16:9
Original display aspect ratio  : 16:9
Frame rate mode                : Constant
Frame rate                     : 23.976 fps
Standard                       : NTSC
Color space                    : YUV
Chroma subsampling             : 4:2:0
Bit depth                      : 8 bits
Scan type                      : Progressive
Bits/(Pixel*Frame)             : 0.283
Stream size                    : 73.3 MiB (90%)


Audio
ID                             : 2
Format                         : MPEG Audio
Format version                 : Version 1
Format profile                 : Layer 3
Mode                           : Joint stereo
Mode extension                 : MS Stereo
Codec ID                       : 6B
Duration                       : 4mn 29s
Bit rate mode                  : Variable
Bit rate                       : 237 Kbps
Maximum bit rate               : 276 Kbps
Channel(s)                     : 2 channels
Sampling rate                  : 44.1 KHz
Compression mode               : Lossy
Delay relative to video        : -833ms
Stream size                    : 7.61 MiB (9%)